<svg xmlns="http://www.w3.org/2000/svg" xmlns:xlink="http://www.w3.org/1999/xlink" viewBox="0 0 721.25 785.47"><defs><style>.cls-1,.cls-10,.cls-8{fill:none;}.cls-2{fill:#fff;}.cls-3{clip-path:url(#clip-path);}.cls-4{fill:#d2dde9;}.cls-5{fill:#b24020;}.cls-6{fill:#f1b7a8;}.cls-7{fill:#fde9e4;}.cls-8{stroke:#7389a0;}.cls-10,.cls-8{stroke-miterlimit:10;stroke-width:2px;}.cls-9{clip-path:url(#clip-path-2);}.cls-10{stroke:#ccc3b5;}.cls-11{fill:#596d4e;}.cls-12{fill:#3a4733;}.cls-13{fill:#915c25;}.cls-14{fill:#7e8f27;}.cls-15{fill:#e09b2f;}.cls-16{fill:#fcd9c8;}.cls-17{fill:#39434f;}.cls-18{fill:#9fb339;}.cls-19{fill:#2465ae;}.cls-20{fill:#7389a0;}.cls-21{fill:#b4c7d9;}.cls-22{fill:#d0ddea;}.cls-23{fill:#1c2024;}.cls-24{fill:#40471f;}.cls-25{fill:#616f30;}.cls-26{fill:#6e6658;}.cls-27{fill:#b2a796;}</style><clipPath id="clip-path"><rect class="cls-1" width="721.25" height="785.47"/></clipPath><clipPath id="clip-path-2"><circle class="cls-2" cx="307.15" cy="130.94" r="69.5"/></clipPath></defs><g id="Capa_2" data-name="Capa 2"><g class="cls-3"><circle class="cls-4" cx="456.32" cy="261.05" r="381.11"/><rect class="cls-2" x="494.05" y="72.54" width="134.63" height="162.58"/><path class="cls-5" d="M622.18,79V228.62H500.55V79H622.18m13-13H487.55V241.62H635.18V66Z"/><rect class="cls-6" x="521.75" y="100.62" width="79.24" height="106.41"/><path class="cls-7" d="M529.33,207h7a12.65,12.65,0,0,1,.42-8.57c2.14-5.2,7-8.68,10.66-10.69a65.89,65.89,0,0,1,8.2-3.62,1.31,1.31,0,0,1,1.68,1.69v0a62.56,62.56,0,0,0-3.23,10.58,24.25,24.25,0,0,0,.3,10.58h7.2a15.9,15.9,0,0,1-.81-9.36,56.21,56.21,0,0,1,2.91-9.43c.56-1.49,1.14-3,1.66-4.59l0-.12a8.44,8.44,0,0,1,4.37-4.95,37.73,37.73,0,0,0,5.07-2.74c1.21-.76,2.37-.46,3.33.81.15.2,3.91,5.3,5.08,8.56a20.4,20.4,0,0,1,0,12.86,28.45,28.45,0,0,1-4.8,9h8.21a34.18,34.18,0,0,0,3.09-6.94,27.25,27.25,0,0,0-.12-17.18c-1.5-4.19-4-7.65-6.5-11l-.12-.17a1.83,1.83,0,0,1,.19-2.36h0c6.34-6.43,9.46-14.87,8.34-22.58,0-.24-.08-.47-.12-.71a69.85,69.85,0,0,1,9.6-2v-6.86a76.94,76.94,0,0,0-11,2.17.83.83,0,0,1-1-.43,38.3,38.3,0,0,0-2.87-4.76,4.64,4.64,0,0,1,3-7.16A59.23,59.23,0,0,1,601,126v-6.79a65.52,65.52,0,0,0-19.29,2.68,6,6,0,0,1-6.87-2.8c-.3-.52-.59-1.05-.85-1.58v0a3.21,3.21,0,0,1,1.37-4.23,46.71,46.71,0,0,0,14.93-12.66h-9a41.14,41.14,0,0,1-5.47,4.45,2.61,2.61,0,0,1-4-2.57c.1-.63.23-1.26.37-1.88h-6.94a32.89,32.89,0,0,0-.49,7.21,3.63,3.63,0,0,1-2.59,3.64,58.49,58.49,0,0,1-13.71,2.31.85.85,0,0,1-.75-1.32,57.49,57.49,0,0,0,6.25-11.84h-7.69c-1.85,3.55-4.21,7.26-5.9,9.81a6.24,6.24,0,0,1-6,2.76,116.22,116.22,0,0,1-12.55-2.36v7c1.43.32,2.86.63,4.3.91a2.54,2.54,0,0,1,.94,4.6,55.58,55.58,0,0,1-5.24,3v7.47c1.24-.55,2.47-1.12,3.68-1.74a4,4,0,0,1,5.8,3.09,19.67,19.67,0,0,0,2.53,7.63,26.31,26.31,0,0,0,4,5,7,7,0,0,1-.1,9.81c-.23.24-.47.48-.71.71a38.65,38.65,0,0,1-15.16,8.91v7.09a44.75,44.75,0,0,0,19.88-11.11,68.24,68.24,0,0,0,6.47-7.41l.85.57c4.61,3.16,9.52,7.09,11,12.21a15.3,15.3,0,0,1,.43,6,.85.85,0,0,1-.54.71l-3.22,1.19a89.49,89.49,0,0,0-12.51,5.28c-6.67,3.64-11.41,8.5-13.7,14.07A19.62,19.62,0,0,0,529.33,207Zm37.53-78.75a64.61,64.61,0,0,0-16.42,13.51c-1.15,1.32-2.24,2.68-3.29,4A.84.84,0,0,1,546,146a24.5,24.5,0,0,1-6.37-6.7c-2.44-4.11-2.12-10-.25-14.9a5.8,5.8,0,0,1,5.46-3.73h0c1.29,0,2.57,0,3.86-.1a65,65,0,0,0,14.83-2.46,3.61,3.61,0,0,1,4.24,1.81l1,1.86A4.87,4.87,0,0,1,566.86,128.29Zm10.37,26.64c.94-2.37,3.06-4.36,6.46-6.05a.86.86,0,0,1,1.24.74,20.93,20.93,0,0,1-5.66,14,.86.86,0,0,1-1.43-.23C576.77,160.74,576.16,157.67,577.23,154.93Zm-19.68-.06a6.61,6.61,0,0,1,0-9.71,127,127,0,0,1,13.91-11.37,4.88,4.88,0,0,1,6.59,1.09c.72.94,1.5,2,2.21,3a4,4,0,0,1-1.25,5.84c-4,2.33-6.71,5.22-8.1,8.75-2,5.11-.86,10.34,1.13,14.68a2.38,2.38,0,0,1-.93,3l-.06,0a2.74,2.74,0,0,1-4.1-1.77c-.11-.58-.26-1.17-.43-1.76C565.33,162.68,561.1,158.14,557.55,154.87Z"/><line class="cls-8" x1="307.15" y1="130.94" x2="307.15" y2="0.25"/><circle class="cls-2" cx="307.15" cy="130.94" r="69.5"/><g class="cls-9"><line class="cls-10" x1="240.59" y1="90" x2="365.6" y2="78.06"/><line class="cls-10" x1="264" y1="68.99" x2="346.18" y2="68.99"/><line class="cls-10" x1="236.89" y1="106.93" x2="384.53" y2="144.28"/><line class="cls-10" x1="381.03" y1="150.26" x2="230.13" y2="150.26"/><path class="cls-10" d="M236.89,170.18c72.43-14.94,144.14-12,144.14-12"/><path class="cls-10" d="M240.59,95.48c62.76,12.45,143.94,9,143.94,9"/><line class="cls-10" x1="375.9" y1="164.08" x2="246.07" y2="181.14"/><line class="cls-10" x1="264" y1="192.59" x2="363.33" y2="189.61"/></g><path class="cls-11" d="M541.43,420.45a28.65,28.65,0,0,0-7-7.92,20.59,20.59,0,0,0-9.67-4.1,8.3,8.3,0,0,0-5.62.9,10.53,10.53,0,0,0-2.74,3l-3,4.26c2.56,1,5.57,2,8.23,1.37,3.25-.8,5.7-3.77,9-4.28a11.46,11.46,0,0,1,5.71,1,16.8,16.8,0,0,1,4.16,2.11,7.33,7.33,0,0,1,2.75,3.68Z"/><path class="cls-11" d="M543.06,418.85a49.62,49.62,0,0,1,5.68-21.11c3.28-6.12,7.93-10,13.55-13.76a7.23,7.23,0,0,0,3.08-3.76c1.69,21.26-21.29,27-21.55,40.06Z"/><path class="cls-12" d="M544,418.34c4.71-20.6,23.29-17.38,29.17-11-7.74,11-16.55,2.84-22.35,4.65-4.81,1.49-6.11,4.62-6.51,7Z"/><path class="cls-12" d="M543.06,418.85l-5.77-12.93C531.16,391,512.75,394,512.75,394c4,12.8,18.56,11.14,23.28,16.06A38.17,38.17,0,0,1,542.2,419Z"/><path class="cls-11" d="M543.56,421.59l-6.74-15.67c-5.09-12.66,2.09-19.84,4-21.67,7,8.62,6.17,14.62,3.61,18.93a17.69,17.69,0,0,0-1,16.19Z"/><path class="cls-13" d="M525.21,457.06a29.31,29.31,0,0,0,.35,4.57l6.42,42h17.43l6.42-42a30.23,30.23,0,0,0-3.1-18.61,24.36,24.36,0,0,1-2-17.25l1.89-7.43H528.81l1.88,7.43a24.41,24.41,0,0,1-2,17.25A30.24,30.24,0,0,0,525.21,457.06Z"/><path class="cls-14" d="M624.76,405.34a38,38,0,0,0-1.52-12.69,32.8,32.8,0,0,0-6.07-11.4,27,27,0,0,0-23.45-9.65,22.4,22.4,0,0,0-12,5.28,30.9,30.9,0,0,0-7.81,10.43,47.72,47.72,0,0,0-3.73,12.32c-.69,4.22-1.09,8.46-1.36,12.7.74-4.19,1.35-8.39,2.38-12.49a50.2,50.2,0,0,1,4.19-11.8,30.44,30.44,0,0,1,7.6-9.62,20.63,20.63,0,0,1,11-4.73,24.63,24.63,0,0,1,12,1.67,26.36,26.36,0,0,1,10,7C621.46,388.51,624.36,396.88,624.76,405.34Z"/><path class="cls-14" d="M621.81,406.16a51.91,51.91,0,0,0-1-13.43,26.59,26.59,0,0,0-2.33-6.44,13.75,13.75,0,0,0-4.68-5.24,9.55,9.55,0,0,0-7.08-1.2,15.11,15.11,0,0,0-6.34,3.19,32.23,32.23,0,0,0-8.16,11.08c-3.88,8.31-5.44,17.42-5.74,26.42a103.5,103.5,0,0,0,2.84,26.74c-.58-4.44-1.08-8.88-1.26-13.34a113.81,113.81,0,0,1,.07-13.32A85,85,0,0,1,590,407.49,57.14,57.14,0,0,1,594.16,395a30.93,30.93,0,0,1,7.52-10.45,13.2,13.2,0,0,1,5.46-2.92,8.06,8.06,0,0,1,5.85.81,12.48,12.48,0,0,1,4.32,4.51,25.83,25.83,0,0,1,2.53,6A26.16,26.16,0,0,1,621.81,406.16Z"/><path class="cls-14" d="M630.08,405a35.45,35.45,0,0,1,3.15-11,22.35,22.35,0,0,1,7-8.56,16.87,16.87,0,0,1,10.21-3.38,13.68,13.68,0,0,1,9.54,4.24,11.6,11.6,0,0,1,1.59,2.1,11,11,0,0,1,1,2.42,15.16,15.16,0,0,1,.43,5.35,40.7,40.7,0,0,1-2.71,10.9,48.8,48.8,0,0,1-13,18.57,44,44,0,0,0,16.49-23.47,33.17,33.17,0,0,0,1.18-5.82,16.76,16.76,0,0,0-.43-6.09,13.86,13.86,0,0,0-1.2-2.9,14.31,14.31,0,0,0-1.86-2.51,15.6,15.6,0,0,0-11-4.78,18.19,18.19,0,0,0-11.22,4.05,22.66,22.66,0,0,0-7,9.46A32.42,32.42,0,0,0,630.08,405Z"/><path class="cls-14" d="M630.35,405a22.06,22.06,0,0,1,9.77-15,15.34,15.34,0,0,1,8.32-2.63,9.33,9.33,0,0,1,7.18,4,14.22,14.22,0,0,1,2.66,8.22,25.44,25.44,0,0,1-1.37,8.92,28.42,28.42,0,0,1-11.13,14.41,26,26,0,0,0,12.67-13.84,25.37,25.37,0,0,0,1.82-9.54,16.05,16.05,0,0,0-3-9.44,12.57,12.57,0,0,0-3.85-3.36,10.32,10.32,0,0,0-5-1.33,16.45,16.45,0,0,0-9.29,3.26,21.87,21.87,0,0,0-6.39,7.22A20.49,20.49,0,0,0,630.35,405Z"/><path class="cls-14" d="M627.78,408.13a126.61,126.61,0,0,1,3.81-23.45,116.57,116.57,0,0,1,8.27-22.12c3.47-7,7.85-13.71,13.82-18.76a35.52,35.52,0,0,1,10-6,28,28,0,0,1,11.58-2,26.67,26.67,0,0,0-11.92,1,34.35,34.35,0,0,0-10.7,5.68,44.75,44.75,0,0,0-8.43,8.74A70,70,0,0,0,638,361.62a100.55,100.55,0,0,0-8,22.68A93.38,93.38,0,0,0,627.78,408.13Z"/><path class="cls-14" d="M628.49,407.38a122.3,122.3,0,0,1,7.18-26.1,115.92,115.92,0,0,1,12.84-23.66c2.57-3.65,5.47-7.09,9.15-9.41s8-3.57,12.38-4.81a84.77,84.77,0,0,1,13.18-2.89,26.74,26.74,0,0,1,13.28,1.39c-4-2.14-8.81-2.65-13.37-2.42a74.71,74.71,0,0,0-13.51,2.33c-4.4,1.06-8.94,2.24-13,4.7s-7.15,6.17-9.8,9.89a102.76,102.76,0,0,0-12.66,24.3A97.14,97.14,0,0,0,628.49,407.38Z"/><path class="cls-14" d="M628.8,407.78c1.91-10,4.87-19.91,9.69-28.81a63,63,0,0,1,8.71-12.31,51.32,51.32,0,0,1,11.52-9.58,41.18,41.18,0,0,1,13.87-5.39,34.61,34.61,0,0,1,14.82.28,28.39,28.39,0,0,1,12.93,7.2,25.18,25.18,0,0,1,7.35,13,24.75,24.75,0,0,0-6.61-13.75,28.61,28.61,0,0,0-13.24-8.07,35.29,35.29,0,0,0-15.6-.66,42.93,42.93,0,0,0-14.61,5.55A56.45,56.45,0,0,0,637,378.21C632.35,387.46,629.9,397.62,628.8,407.78Z"/><path class="cls-14" d="M631.54,406.9c2.93-8.12,6.45-16.08,11.47-23a58,58,0,0,1,4-4.91,44.85,44.85,0,0,1,4.67-4.27,36.54,36.54,0,0,1,11-6,30.87,30.87,0,0,1,12.34-1.66,27.06,27.06,0,0,1,6.1,1.23,19.87,19.87,0,0,1,5.49,2.79,12.41,12.41,0,0,1,3.63,4.84,36.79,36.79,0,0,1,2.11,6,39.94,39.94,0,0,1,1.25,12.77,37.14,37.14,0,0,0-.24-13,36.25,36.25,0,0,0-1.85-6.32,13.68,13.68,0,0,0-3.87-5.57,23.87,23.87,0,0,0-12.45-4.73,32.36,32.36,0,0,0-13.18,1.65c-1.07.32-2.08.79-3.11,1.2s-2,.92-3,1.5a36.43,36.43,0,0,0-5.52,3.7,45.75,45.75,0,0,0-8.81,9.79C636.73,390.26,633.69,398.54,631.54,406.9Z"/><path class="cls-14" d="M626.49,402.16a220.09,220.09,0,0,1,1.76-23.44,89.18,89.18,0,0,1,6-22.45,59.32,59.32,0,0,1,12.88-19.08,44.75,44.75,0,0,1,19.94-11.62,37.42,37.42,0,0,0-11.27,3.62A45.56,45.56,0,0,0,646,336a55.93,55.93,0,0,0-13.69,19.46,79.67,79.67,0,0,0-5.67,23.07A133.35,133.35,0,0,0,626.49,402.16Z"/><path class="cls-14" d="M625.47,401.93a18.46,18.46,0,0,0-1.63-6.59,11.58,11.58,0,0,0-4.69-5.19,8.88,8.88,0,0,0-7.19-.87,11.15,11.15,0,0,0-5.64,4.57,20,20,0,0,0-2.48,6.58,33.53,33.53,0,0,0-.66,6.84,31.17,31.17,0,0,0,2.92,13.19,42.86,42.86,0,0,1-1.28-13.14,38.89,38.89,0,0,1,1-6.46A18.42,18.42,0,0,1,608.1,395a9.18,9.18,0,0,1,4.5-3.82,7.32,7.32,0,0,1,5.78.43,11.05,11.05,0,0,1,4.56,4.24A22.83,22.83,0,0,1,625.47,401.93Z"/><path class="cls-14" d="M624,403a11.59,11.59,0,0,0,0-3.17,14.26,14.26,0,0,0-.87-3.11,15.4,15.4,0,0,0-1.65-2.82,14.59,14.59,0,0,0-2.29-2.36,14,14,0,0,0-2.82-1.78,15.77,15.77,0,0,0-3.19-1,16,16,0,0,0-6.64.26,17,17,0,0,0-5.94,2.9,16.71,16.71,0,0,0-4.27,5,18.17,18.17,0,0,0-1.94,12.44,21.22,21.22,0,0,1,3.35-11.58,15.72,15.72,0,0,1,9.33-6.71A13.27,13.27,0,0,1,624,403Z"/><path class="cls-14" d="M625.23,407.43a57.18,57.18,0,0,0,.69-16.22,41.3,41.3,0,0,0-1.7-8.06,35.67,35.67,0,0,0-3.47-7.53,29.74,29.74,0,0,0-5.35-6.39,27.33,27.33,0,0,0-3.35-2.51,24.63,24.63,0,0,0-3.74-1.87c-5.15-2.06-11.18-2.23-16.07.18a22,22,0,0,1,15.42,1.33A26.56,26.56,0,0,1,619,376.73a40.23,40.23,0,0,1,5.34,14.7A89.58,89.58,0,0,1,625.23,407.43Z"/><path class="cls-14" d="M624,407.48c.62-5.14,1.1-10.31,1.3-15.51a72.64,72.64,0,0,0-1.06-15.63,46,46,0,0,0-5.43-14.81,32.15,32.15,0,0,0-11.11-11.36,26.88,26.88,0,0,0-15.44-3.84,22.24,22.24,0,0,0-7.81,2.08,25.22,25.22,0,0,0-6.59,4.54,35.55,35.55,0,0,0-8.59,13.16,77.34,77.34,0,0,0-3.87,15.1,88.4,88.4,0,0,1,4.82-14.7A35.78,35.78,0,0,1,579,354.17a25.2,25.2,0,0,1,6.26-4.09,20.24,20.24,0,0,1,7.16-1.75A25,25,0,0,1,606.66,352a30.28,30.28,0,0,1,10.47,10.57,45.93,45.93,0,0,1,5.53,14.11C624.86,386.69,624.39,397.15,624,407.48Z"/><path class="cls-14" d="M628.07,407.47c1-9.25,1.58-18.64.51-28a72.9,72.9,0,0,0-2.89-13.82,67.93,67.93,0,0,0-2.57-6.61,61.77,61.77,0,0,0-3.35-6.27,56.12,56.12,0,0,0-4.2-5.76,49,49,0,0,0-5-5.07,45.22,45.22,0,0,0-5.84-4.13,36.9,36.9,0,0,0-13.44-4.53,37.46,37.46,0,0,0-7.1-.18,33.84,33.84,0,0,0-6.92,1.4,28,28,0,0,0-6.32,3,29.39,29.39,0,0,1,13.3-3.39,36.3,36.3,0,0,1,6.83.52,39.37,39.37,0,0,1,6.59,1.79,36.95,36.95,0,0,1,11.59,7,49.86,49.86,0,0,1,4.75,4.89,53.3,53.3,0,0,1,4,5.54c4.87,7.75,7.64,16.69,9,25.8S628.31,398.16,628.07,407.47Z"/><path class="cls-14" d="M629.47,407a122.2,122.2,0,0,1-2.4-30A66.6,66.6,0,0,1,635,348.43c4.76-8.66,12-16.11,21.07-20.14a45.39,45.39,0,0,1,7-2.43,41.68,41.68,0,0,1,7.37-1.13,38.16,38.16,0,0,1,7.47.32,39.52,39.52,0,0,1,7.28,1.94A33.91,33.91,0,0,0,678,324.5a38.67,38.67,0,0,0-7.6-.8,42.61,42.61,0,0,0-7.64.81,44.5,44.5,0,0,0-7.37,2.27,43.66,43.66,0,0,0-6.83,3.6,48.38,48.38,0,0,0-6,4.81,52.05,52.05,0,0,0-5.15,5.76,59.69,59.69,0,0,0-4.22,6.46,61.59,61.59,0,0,0-5.62,14.3,74.8,74.8,0,0,0-1.45,7.54c-.33,2.54-.52,5.09-.61,7.64A101.53,101.53,0,0,0,629.47,407Z"/><path class="cls-14" d="M627,406.24a136.19,136.19,0,0,0,3.12-26.74,86.36,86.36,0,0,0-1-13.52,70.74,70.74,0,0,0-3.45-13.17,65.52,65.52,0,0,0-2.78-6.24,57.18,57.18,0,0,0-3.52-5.86,55,55,0,0,0-4.31-5.32,47.84,47.84,0,0,0-5.06-4.6,46.32,46.32,0,0,0-5.71-3.74A44.44,44.44,0,0,0,598,324.3a41.65,41.65,0,0,0-6.6-1.56,33.69,33.69,0,0,0-6.73-.23,35.81,35.81,0,0,1,13,2.76,44.12,44.12,0,0,1,5.91,3,49.63,49.63,0,0,1,5.36,3.83,50.7,50.7,0,0,1,14.74,21.48,80,80,0,0,1,4.76,26A194.78,194.78,0,0,1,627,406.24Z"/><path class="cls-14" d="M625.08,401.67a59.67,59.67,0,0,0-.31-11,38.86,38.86,0,0,0-3-10.72,30,30,0,0,0-6.39-9.25,23.25,23.25,0,0,0-9.8-5.73,20.65,20.65,0,0,0-11.4.05,18.22,18.22,0,0,0-9.18,6.67,28.66,28.66,0,0,0-4.67,10.13,74.94,74.94,0,0,0-1.76,10.88,98.3,98.3,0,0,1,2.75-10.58,29.57,29.57,0,0,1,5-9.42,16.86,16.86,0,0,1,8.46-5.76,18.79,18.79,0,0,1,10.25.06,21.67,21.67,0,0,1,9,5.14,30.21,30.21,0,0,1,6.28,8.51C623.52,387.06,624.69,394.39,625.08,401.67Z"/><path class="cls-14" d="M626.47,404.9c2.15-5,4.18-10,6.75-14.71a51.85,51.85,0,0,1,9.33-12.93,32.1,32.1,0,0,1,13.4-8,22.9,22.9,0,0,1,7.67-.83,20.86,20.86,0,0,1,7.42,2,26.21,26.21,0,0,1,11.27,10.46,28.84,28.84,0,0,1,4.18,14.95,39.69,39.69,0,0,1-3.24,15.5A54.44,54.44,0,0,1,674.84,425a51.32,51.32,0,0,0,9.36-13.29,39.29,39.29,0,0,0,3.93-15.91,29.71,29.71,0,0,0-4.11-16,28,28,0,0,0-12.09-11.35,23.08,23.08,0,0,0-8.17-2.13,24.29,24.29,0,0,0-8.36,1,32.92,32.92,0,0,0-14,8.74,50.3,50.3,0,0,0-9.09,13.62A143.36,143.36,0,0,0,626.47,404.9Z"/><path class="cls-14" d="M630.74,408c2.17-9.63,4.25-19.37,8.41-28.21a49,49,0,0,1,8-12.09,33.58,33.58,0,0,1,11.5-8.44,29.06,29.06,0,0,1,27.38,2.5,30,30,0,0,1,13,24.82,29.39,29.39,0,0,0-12-26.18,30.21,30.21,0,0,0-29.16-3.08,35.47,35.47,0,0,0-12.14,9,48.06,48.06,0,0,0-8,12.74C633.64,388.3,632.11,398.21,630.74,408Z"/><path class="cls-14" d="M623.35,408.52a54.81,54.81,0,0,0-2.4-13.13,26.53,26.53,0,0,0-3-6.08,19.81,19.81,0,0,0-4.81-4.9,19.59,19.59,0,0,0-3-1.76,16.09,16.09,0,0,0-3.34-1.08,13.46,13.46,0,0,0-7.06.45,15.15,15.15,0,0,0-5.87,3.91,22.54,22.54,0,0,0-3.89,5.74,41.21,41.21,0,0,0-3.54,13.09,61.73,61.73,0,0,0-.23,13.45,63.28,63.28,0,0,0,2.55,13.16A62.34,62.34,0,0,0,594,443.6a71.44,71.44,0,0,1-6.2-25.51,65.64,65.64,0,0,1,.57-13.07l.23-1.62.3-1.61c.19-1.08.41-2.13.7-3.17a32.75,32.75,0,0,1,2.22-6c1.81-3.83,4.68-7.27,8.54-8.69a11.38,11.38,0,0,1,6-.52,15.57,15.57,0,0,1,5.77,2.38,19,19,0,0,1,4.62,4.36,25.37,25.37,0,0,1,3.18,5.64A61.77,61.77,0,0,1,623.35,408.52Z"/><path class="cls-14" d="M624.35,409a79.92,79.92,0,0,0,2.18-15.42,82.45,82.45,0,0,0-1-15.61,81.31,81.31,0,0,0-4-15.17,51.54,51.54,0,0,0-7.45-13.92,29.63,29.63,0,0,0-5.74-5.61,20.72,20.72,0,0,0-7.35-3.43,19.29,19.29,0,0,0-8.11-.15,23.46,23.46,0,0,0-7.49,2.89,26.73,26.73,0,0,0-6.18,5,34,34,0,0,0-4.55,6.45,54.48,54.48,0,0,0-5.09,14.72,58.59,58.59,0,0,1,6-14.2A28.77,28.77,0,0,1,586.24,344a23,23,0,0,1,7-2.5,17.26,17.26,0,0,1,7.3.27,19.24,19.24,0,0,1,6.62,3.15,27.73,27.73,0,0,1,5.29,5.26,50.4,50.4,0,0,1,7.25,13.32,85.37,85.37,0,0,1,4.24,14.74A88.2,88.2,0,0,1,624.35,409Z"/><path class="cls-14" d="M625.05,405.28a106.41,106.41,0,0,1-.78-22.47,105.68,105.68,0,0,1,12.52-42.67,106.77,106.77,0,0,1,12.79-18.49,80.25,80.25,0,0,0-14.22,17.68,90.33,90.33,0,0,0-12.72,43.39A80.26,80.26,0,0,0,625.05,405.28Z"/><path class="cls-14" d="M623.91,409A120.08,120.08,0,0,0,625,385.59c-.24-7.82-.79-15.6-.71-23.35a90.14,90.14,0,0,1,2.85-22.92A49,49,0,0,1,637.85,319a39,39,0,0,0-7.49,9.07,50.79,50.79,0,0,0-4.81,10.81,80.19,80.19,0,0,0-3.38,23.37c0,7.87.61,15.68,1.18,23.45A182,182,0,0,1,623.91,409Z"/><path class="cls-14" d="M623.11,404.15c-.07-7.72.35-15.4.63-23.1s.51-15.45.07-23.21a91.84,91.84,0,0,0-4.11-22.93,53.93,53.93,0,0,0-11.42-20.13,63.41,63.41,0,0,1,9.85,20.61A106.28,106.28,0,0,1,621.7,358c.48,7.64.38,15.33.4,23A203.17,203.17,0,0,0,623.11,404.15Z"/><path class="cls-14" d="M627.47,403.48a106.54,106.54,0,0,1,1.31-17.25A100.11,100.11,0,0,1,640,353.87a107.55,107.55,0,0,1,9.63-14.37,68.33,68.33,0,0,0-11,13.54,77.56,77.56,0,0,0-11.42,33A68.52,68.52,0,0,0,627.47,403.48Z"/><path class="cls-14" d="M624.31,407.16a115.24,115.24,0,0,0,2.11-28.55,122.38,122.38,0,0,0-4.76-28.34,77.31,77.31,0,0,0-5.2-13.49,40.28,40.28,0,0,0-8.7-11.64,27.56,27.56,0,0,0-12.91-6.55,20.21,20.21,0,0,0-14,2,20.4,20.4,0,0,1,13.8-1,27.21,27.21,0,0,1,12,6.75,40.18,40.18,0,0,1,8,11.33,76.86,76.86,0,0,1,5,13.19,137.71,137.71,0,0,1,5.15,27.84A147.89,147.89,0,0,1,624.31,407.16Z"/><path class="cls-14" d="M630.52,404.7a56.31,56.31,0,0,1,2.32-19,52.16,52.16,0,0,1,22.61-29.52,56.33,56.33,0,0,1,17.72-7.2,46.16,46.16,0,0,0-18.55,5.78,47.95,47.95,0,0,0-23.36,30.5A46.15,46.15,0,0,0,630.52,404.7Z"/><path class="cls-14" d="M623.88,403.57A79.65,79.65,0,0,0,622.34,389a43.65,43.65,0,0,0-2.16-7.1,34.68,34.68,0,0,0-3.6-6.57,26.75,26.75,0,0,0-5.22-5.46,24.93,24.93,0,0,0-3.22-2,19.57,19.57,0,0,0-3.54-1.39,20.46,20.46,0,0,0-3.72-.68,19.7,19.7,0,0,0-3.76.09,17.1,17.1,0,0,0-3.61.93,15,15,0,0,0-3.21,1.8,17.59,17.59,0,0,1,13.8-.57,22.65,22.65,0,0,1,10.76,8.53,40.74,40.74,0,0,1,5.89,12.85C622.06,394,622.87,398.8,623.88,403.57Z"/><path class="cls-14" d="M622.48,407.19a28.87,28.87,0,0,0-3.05-16.47,31.07,31.07,0,0,0-4.9-7,29,29,0,0,0-6.8-5.34,17.46,17.46,0,0,0-8.48-2.28,11.46,11.46,0,0,0-8.07,3.57,17.21,17.21,0,0,0-4.11,7.57,43.11,43.11,0,0,0-1.19,8.33,62.14,62.14,0,0,1,2.18-8,17,17,0,0,1,4.27-6.71,10,10,0,0,1,6.95-2.75,15.79,15.79,0,0,1,7.45,2.13A30.21,30.21,0,0,1,618,391.51,33.62,33.62,0,0,1,622.48,407.19Z"/><path class="cls-14" d="M622.62,407.24a17.78,17.78,0,0,0-3.74-14.61,16.1,16.1,0,0,0-6.45-4.64,17,17,0,0,0-7.93-1,15.1,15.1,0,0,0-7.38,3.14,19.92,19.92,0,0,0-5,6.11c-2.5,4.64-3.32,9.76-3.94,14.76,1.47-4.83,2.77-9.77,5.37-13.93a19.67,19.67,0,0,1,4.78-5.36,13.15,13.15,0,0,1,6.43-2.62,15.31,15.31,0,0,1,12.88,4.65A19.3,19.3,0,0,1,622.62,407.24Z"/><polygon class="cls-15" points="582.03 401.17 596.05 503.62 662.98 503.62 677 401.17 582.03 401.17"/><path class="cls-14" d="M602.55,415.22a46,46,0,0,0,5.84,16.89A59.46,59.46,0,0,1,604.18,415a53.09,53.09,0,0,1,1.23-17.3,13.44,13.44,0,0,1,4-7.1,7.42,7.42,0,0,1,3.49-1.78,7.69,7.69,0,0,1,3.94.26,11.7,11.7,0,0,1,6.3,5.28,25.72,25.72,0,0,1,2.77,6.78h.21A24.24,24.24,0,0,0,624,393.9a12.51,12.51,0,0,0-6.66-6.33,8.94,8.94,0,0,0-4.82-.54,9.51,9.51,0,0,0-4.42,2.07,15.13,15.13,0,0,0-4.74,8.09A47.64,47.64,0,0,0,602.55,415.22Z"/><path class="cls-14" d="M634.13,401.17h.43a28.71,28.71,0,0,1,3.9-6.24,10.7,10.7,0,0,1,3.83-2.59,8.82,8.82,0,0,1,4.42-.54,11.73,11.73,0,0,1,7.51,4.71,13.94,13.94,0,0,1,2.11,4,15.23,15.23,0,0,1,.68,4.52,24.92,24.92,0,0,1-1.78,9.2,53.25,53.25,0,0,1-4.29,8.62,68.88,68.88,0,0,1-12.39,15,53.62,53.62,0,0,0,13.77-14.08,48,48,0,0,0,4.77-8.78,26.25,26.25,0,0,0,2-10,18.05,18.05,0,0,0-.84-5.13,15,15,0,0,0-2.49-4.6,13.18,13.18,0,0,0-8.9-5.13,10.3,10.3,0,0,0-5.15.91,12,12,0,0,0-4,3.16,17.54,17.54,0,0,0-2.61,4.29A19.52,19.52,0,0,0,634.13,401.17Z"/><path class="cls-14" d="M632.55,401.17h.39c.22-.92.5-1.84.79-2.74.9-2.62,1.95-5.22,3-7.76,2.19-5.06,5-10,9.18-13.42a19.41,19.41,0,0,1,7-3.77,14.4,14.4,0,0,1,7.76,0,20.56,20.56,0,0,1,12,9.81c2.76,4.6,3.58,10.13,3.16,15.54a55.35,55.35,0,0,1-4,15.91,83.05,83.05,0,0,1-7.51,14.77,37,37,0,0,1-11.72,11.61,35.64,35.64,0,0,0,12.56-11,76.12,76.12,0,0,0,8.19-14.74A54.4,54.4,0,0,0,677.91,399a32.22,32.22,0,0,0-.35-8.6,24.7,24.7,0,0,0-3-8.17,22.51,22.51,0,0,0-13.37-10.66,16.26,16.26,0,0,0-8.78.15,20.3,20.3,0,0,0-7.55,4.29,27.73,27.73,0,0,0-5.43,6.62,47.82,47.82,0,0,0-3.63,7.66c-1,2.65-1.88,5.28-2.64,8A28.26,28.26,0,0,0,632.55,401.17Z"/><path class="cls-16" d="M307.68,678.85l7.37,42.88s2.64,13.8-.62,26.17c-2.95,11.22-24,21-38.66,22.76-2.47.3-5.56.08-5.45,4.22s9.73,7.08,17.54,7.08,16.54-3.45,22.42-3.45c5.64,0,12.56,3.17,18.21,3.42.23,0,.47,0,.71,0a11,11,0,0,0,11-11,20,20,0,0,0-.53-3.37c-5.21-17-1.12-45.83-1.12-45.83l4.35-40.24"/><path class="cls-17" d="M298.51,766a46.52,46.52,0,0,1,5.39,9.83A6.53,6.53,0,0,0,310,780h29a1.92,1.92,0,0,1,1.93,1.93h0a1.92,1.92,0,0,1-1.93,1.93H271.4c-5.73,0-7.93-8.87-2-12.28,3.92-2.41,15.94-6,22.27-7.87A6.24,6.24,0,0,1,298.51,766Z"/><path class="cls-16" d="M438,697.25s16.17,34.61,29.92,45.82a19.72,19.72,0,0,1,2.32,2.52,11,11,0,0,1-3,15.29l-.6.37c-4.84,2.93-11.24,5.21-15.93,8.34-4.89,3.27-10,14.24-17.84,14.24-12.17,0-17.56,0-17.56-4.62,0-2.47,3-2.72,5.47-3.22,14.86-3,18.09-22.94,15.37-35.23-2.76-12.5-14.13-22.11-14.13-22.11-13-13.42-43.46-48.5-43.46-48.5l46.79,11.34Z"/><polygon class="cls-17" points="364.57 783.83 369.99 783.83 415.55 577.48 410.39 576.34 364.57 783.83"/><polygon class="cls-17" points="459.71 577.48 505.27 783.83 510.7 783.83 464.88 576.34 459.71 577.48"/><path class="cls-18" d="M470.16,415.72h30.23A10.28,10.28,0,0,1,510.48,428c-7.61,40-11.42,89.75-13.23,122.3A36.27,36.27,0,0,1,461,584.49H366.18Z"/><path class="cls-19" d="M393.58,377.84l-3.36,1.28-14.06,5.37C365,389.13,361.85,405,361.85,405l-4.64,18.95,16.63,8.5c-5.8,18.17-6.57,26.68-1.55,40.21s6.19,29.76-1.16,33.24S338.27,521,338.27,521c-17.78,7.7-23.19,16.21-25.13,29s-18.55,130.28-18.55,130.28l47.12,26.55A19.17,19.17,0,0,0,369.89,694h0A20.3,20.3,0,0,1,398,679.55L438,697.25l-57.6-122.17,50.26-.77c24-1.55,45.23-24.74,41.75-49.87s-5.82-88.92-5.82-88.92l18.58-1.16c-1.94-32.47-6.09-52.37-27.84-55.36"/><path class="cls-16" d="M352.65,501.86c-1.29,1.64,1.93,3.27,4.56.19-.67,2.22,2.38,2.11,4.56-.36-.42,2,1.79,2.54,4.28-.18,1.23-1.09,2.86.11,2.86.11l3.26,2.3c4.47,3,9.37-.23,12.21-.3s77.91,0,77.91,0c14.88.05,25.4-37.16,22.89-69.26,0,0-20.39-7.16-42.18-2.63.44,30.59,3.23,45.61,3.23,45.61L389.52,490a20.07,20.07,0,0,1-10.94-2.15l-7.62-3.4a6.52,6.52,0,0,0-7.44,1.27l-12.86,12.85C348,501,351,502.84,352.65,501.86Z"/><rect class="cls-20" x="300.96" y="496.39" width="109.08" height="7.23" rx="3.5" transform="translate(711.01 1000.01) rotate(180)"/><path class="cls-21" d="M239.13,501.23l-20.61-77.64a2.89,2.89,0,0,1,2.79-3.63h98.86a3.3,3.3,0,0,1,3.18,2.45L344,500.2a2.72,2.72,0,0,1-2.62,3.42H242.23A3.2,3.2,0,0,1,239.13,501.23Z"/><polygon class="cls-22" points="262.27 455.98 266.45 471.72 297.19 471.72 293.01 455.98 262.27 455.98"/><path class="cls-16" d="M386.35,334.09a33.36,33.36,0,0,0,31.82,18.39,32.49,32.49,0,0,0,6.37-1A33.32,33.32,0,0,0,448,329.12c.09-.32.19-.65.29-1a33.34,33.34,0,0,0-62.5-22.7h0a33.22,33.22,0,0,0-2.8,17.16,1.66,1.66,0,0,1,0,.32,8,8,0,0,1,.12,1A33.79,33.79,0,0,0,386.35,334.09Z"/><path class="cls-16" d="M390.22,379.12c18.58-5.83,15.22-14.44,15.22-14.44s-5.81,1.75-8.17,2.08-6.12-.17-7.41-5.56c0,0-2.55-10.52-3.09-12.64a4,4,0,0,0-1.45-2.49c-.84-.56-2-1.54-1.73-4.21a95.71,95.71,0,0,0-.58-19.25l65.3,5.52c-4.91,12.57-5.69,34.22,5.54,51.55C430.66,403.85,401.53,394,390.22,379.12Z"/><path class="cls-23" d="M386.41,306.62C388.65,328,410.7,322.35,416,321.47s9.75,5,9.75,5l11.85,6.31c-6,12.21-15.15,29.2-6.47,40.9s26.25,4.17,32.94,7c-10.67-14.79-11.29-31.4-10.29-43.73s.25-39.51-23-48.82S380.59,293,383,322.61C391.09,315,386.41,306.62,386.41,306.62Z"/><ellipse class="cls-16" cx="431.53" cy="329.14" rx="8.22" ry="6.76" transform="translate(94.38 754.44) rotate(-88.93)"/><path class="cls-17" d="M435.4,763.3a46.45,46.45,0,0,1,9.58,5.82,6.54,6.54,0,0,0,7.3.51l25.15-14.52a1.93,1.93,0,0,1,2.64.71h0a1.93,1.93,0,0,1-.71,2.64l-41.59,24a10.25,10.25,0,0,1-5.1,1.36H418.56c-5.74.07-8.05-8.57-2.12-12.05,3.9-2.45,7.31-2.38,11.88-7.13A6.28,6.28,0,0,1,435.4,763.3Z"/><path class="cls-16" d="M364.77,468.68c15.66,4,18.12-51.63,19-55.43s9-7.24,9-7.24l-12.25-25.72H376l-3.81,19.17-10.54,25.83-4.43-1.36C356.29,427.69,349.11,464.63,364.77,468.68Z"/><rect class="cls-5" x="384.53" y="371.61" width="25.2" height="35.97"/><path class="cls-5" d="M380.13,401.65a9,9,0,0,1-9-9v-6.17a9,9,0,1,1,17.93,0v6.17A9,9,0,0,1,380.13,401.65Zm0-21.37a6.25,6.25,0,0,0-6.23,6.24v6.17a6.24,6.24,0,0,0,12.47,0v-6.17A6.25,6.25,0,0,0,380.13,380.28Z"/><path class="cls-16" d="M380.43,380.28l14.33.59c2.54.13,1.66,3.47-1.12,3.83a65.49,65.49,0,0,1-7.27.32c5.82.37,6.8.49,6.8.49,1.13.12,1.48,3.14-2,3.26s-5.14.31-5.14.31l5.18.74c1.45.32,1.41,3.06-2.83,3.38a27.79,27.79,0,0,1-3.85.23c1.7.58,1.67,2.48,0,3.67S380.43,380.28,380.43,380.28Z"/><rect class="cls-24" x="275.91" y="746.88" width="445.34" height="15.11" transform="translate(997.16 1508.87) rotate(-180)"/><polygon class="cls-24" points="255.56 783.9 273.81 783.9 316.49 652.56 299.97 647.2 255.56 783.9"/><path class="cls-25" d="M270.13,619.21H713.56a7.69,7.69,0,0,1,7.69,7.69v22.4a7.69,7.69,0,0,1-7.69,7.69H270.13a0,0,0,0,1,0,0V619.21A0,0,0,0,1,270.13,619.21Z" transform="translate(991.38 1276.19) rotate(-180)"/><rect class="cls-26" x="180.23" y="520.99" width="34" height="262.91" transform="translate(394.45 1304.89) rotate(-180)"/><rect class="cls-27" x="180.23" y="503.62" width="541.02" height="17.38" transform="translate(901.48 1024.61) rotate(-180)"/></g></g></svg>