<?xml version="1.0" encoding="utf-8"?>
<!-- Generator: Adobe Illustrator 26.0.1, SVG Export Plug-In . SVG Version: 6.00 Build 0)  -->
<svg version="1.1" id="Capa_1" xmlns="http://www.w3.org/2000/svg" xmlns:xlink="http://www.w3.org/1999/xlink" x="0px" y="0px"
	 viewBox="0 0 360 360" style="enable-background:new 0 0 360 360;" xml:space="preserve">
<style type="text/css">
	.st0{fill:#83941F;}
	.st1{fill:#FFFFFF;}
</style>
<circle class="st0" cx="180" cy="180" r="180"/>
<path class="st1" d="M138.53,224.4c9,10,22.6,18,43.2,18c24.4,0,44.6-13.6,44.6-36.8c0-16.8-11.4-27.6-26.4-31.6v-0.8
	c13.8-5.4,22.2-15,22.2-29.2c0-21.6-16.8-33.6-41.2-33.6c-15.2,0-27.4,6.4-38.2,16l11.8,14.2c7.8-7.2,15.6-12,25.6-12
	c11.6,0,18.8,6.4,18.8,17c0,11.8-8.2,20.4-33.2,20.4v16.8c29,0,37.4,8.4,37.4,21.6c0,12-9.6,19.2-23.4,19.2
	c-12.8,0-22.6-6.2-30.2-14L138.53,224.4z"/>
</svg>
